<svg xmlns="http://www.w3.org/2000/svg" width="13.016" height="13.016" viewBox="0 0 13.016 13.016">
  <path id="account-light-blue" d="M6.508.563A6.508,6.508,0,1,0,13.016,7.07,6.507,6.507,0,0,0,6.508.563Zm0,2.519A2.309,2.309,0,1,1,4.2,5.391,2.309,2.309,0,0,1,6.508,3.082Zm0,9.027a5.029,5.029,0,0,1-3.844-1.79A2.926,2.926,0,0,1,5.248,8.75a.642.642,0,0,1,.186.029,3.474,3.474,0,0,0,1.073.181,3.461,3.461,0,0,0,1.073-.181.642.642,0,0,1,.186-.029,2.926,2.926,0,0,1,2.585,1.569A5.029,5.029,0,0,1,6.508,12.109Z" transform="translate(0 -0.563)" fill="#bcd2ed"/>
</svg>
