<svg xmlns="http://www.w3.org/2000/svg" width="14.252" height="14.252" viewBox="0 0 14.252 14.252">
  <g id="add-ons-light-blue" transform="translate(-4.5 -4.5)">
    <path id="Path_2492" data-name="Path 2492" d="M17.1,10.215a5.666,5.666,0,0,0-.6-1.459.183.183,0,0,1,.029-.223l1.038-1.038-1.809-1.81L14.721,6.727a.188.188,0,0,1-.223.029,5.607,5.607,0,0,0-1.458-.6.187.187,0,0,1-.139-.175V4.5H10.343V5.97a.176.176,0,0,1-.139.175,5.66,5.66,0,0,0-1.458.6.188.188,0,0,1-.223-.029L7.486,5.677,5.677,7.487,6.714,8.525a.188.188,0,0,1,.029.223,5.613,5.613,0,0,0-.6,1.459.187.187,0,0,1-.175.139H4.5v2.559H5.969a.176.176,0,0,1,.175.139,5.666,5.666,0,0,0,.6,1.459.183.183,0,0,1-.029.223L5.68,15.765l1.809,1.81,1.038-1.042A.188.188,0,0,1,8.75,16.5a5.607,5.607,0,0,0,1.458.6.187.187,0,0,1,.139.175v1.47H12.9v-1.47a.176.176,0,0,1,.139-.175,5.66,5.66,0,0,0,1.458-.6.183.183,0,0,1,.223.029l1.038,1.042,1.809-1.81-1.038-1.038A.188.188,0,0,1,16.5,14.5a5.613,5.613,0,0,0,.6-1.459.187.187,0,0,1,.175-.139h1.469V10.346H17.283A.177.177,0,0,1,17.1,10.215ZM11.626,16.2a4.57,4.57,0,1,1,4.568-4.57A4.575,4.575,0,0,1,11.626,16.2Z" fill="#bcd2ed"/>
    <path id="Path_2493" data-name="Path 2493" d="M23.293,19.613a3.79,3.79,0,0,0-3.85,3.768,3.7,3.7,0,0,0,3.85,3.661,3.753,3.753,0,0,0,3.66-3.661A3.793,3.793,0,0,0,23.293,19.613Zm2.4,4.115H23.64v2.053a.347.347,0,1,1-.695,0V23.728H20.9a.348.348,0,0,1,0-.7h2.049V20.98a.347.347,0,1,1,.695,0v2.053h2.049a.348.348,0,0,1,0,.7Z" transform="translate(-11.6 -11.679)" fill="#bcd2ed"/>
  </g>
</svg>
