<svg xmlns="http://www.w3.org/2000/svg" width="12.805" height="12.805" viewBox="0 0 12.805 12.805">
  <path id="links-light-blue" d="M8.168,4.636A3.8,3.8,0,0,1,8.177,10l-.009.009L6.488,11.693A3.8,3.8,0,0,1,1.112,6.317l.928-.928a.4.4,0,0,1,.683.265,4.608,4.608,0,0,0,.242,1.319.4.4,0,0,1-.095.415l-.327.327a1.8,1.8,0,1,0,2.53,2.563L6.754,8.6a1.8,1.8,0,0,0,0-2.547,1.873,1.873,0,0,0-.259-.214.4.4,0,0,1-.174-.315,1,1,0,0,1,.293-.745L7.14,4.25a.4.4,0,0,1,.515-.043,3.813,3.813,0,0,1,.513.43Zm3.525-3.525a3.806,3.806,0,0,0-5.376,0L4.636,2.792,4.627,2.8A3.8,3.8,0,0,0,5.15,8.6a.4.4,0,0,0,.515-.043l.527-.527a1,1,0,0,0,.293-.745.4.4,0,0,0-.174-.315,1.873,1.873,0,0,1-.259-.214,1.8,1.8,0,0,1,0-2.547l1.681-1.68a1.8,1.8,0,1,1,2.53,2.563l-.327.327a.4.4,0,0,0-.095.415,4.608,4.608,0,0,1,.242,1.319.4.4,0,0,0,.683.265l.928-.928a3.805,3.805,0,0,0,0-5.376Z" fill="#bcd2ed"/>
</svg>
