<svg id="page-light-blue" xmlns="http://www.w3.org/2000/svg" width="13.248" height="12.646" viewBox="0 0 13.248 12.646">
  <g id="Group_7541" data-name="Group 7541">
    <g id="Group_7540" data-name="Group 7540">
      <path id="Path_2488" data-name="Path 2488" d="M21.141,11H12.108A2.11,2.11,0,0,0,10,13.108v2.409h3.023a3.614,3.614,0,0,1,7.2,0h3.023V13.108A2.11,2.11,0,0,0,21.141,11Z" transform="translate(-10 -11)" fill="#bcd2ed"/>
      <path id="Path_2489" data-name="Path 2489" d="M16.624,31.312A3.619,3.619,0,0,1,13.023,28H10v5.42a2.11,2.11,0,0,0,2.108,2.108h9.033a2.11,2.11,0,0,0,2.108-2.108V28H20.225A3.619,3.619,0,0,1,16.624,31.312ZM19.6,34.323h-5.95a.3.3,0,1,1,0-.6H19.6a.3.3,0,1,1,0,.6Zm0-1.505h-5.95a.3.3,0,1,1,0-.6H19.6a.3.3,0,1,1,0,.6Z" transform="translate(-10 -22.881)" fill="#bcd2ed"/>
      <path id="Path_2490" data-name="Path 2490" d="M25.011,23.022A3.011,3.011,0,1,0,22,20.011,3.015,3.015,0,0,0,25.011,23.022Zm0-5.42a2.406,2.406,0,0,1,1.885,3.9,2.112,2.112,0,0,0-1.516-1.134.9.9,0,1,0-.737,0,2.112,2.112,0,0,0-1.516,1.134,2.406,2.406,0,0,1,1.885-3.9Z" transform="translate(-18.387 -15.193)" fill="#bcd2ed"/>
    </g>
  </g>
</svg>
