<svg id="wallet-light-blue" xmlns="http://www.w3.org/2000/svg" width="13.95" height="11.16" viewBox="0 0 13.95 11.16">
  <g id="Group_7539" data-name="Group 7539" transform="translate(0 0)">
    <g id="noun_Wallet_332327">
      <g id="Group_7533" data-name="Group 7533">
        <path id="Path_2479" data-name="Path 2479" d="M44.519,62.533H31.964a.659.659,0,0,0-.7.7V73a.659.659,0,0,0,.7.7H44.519a.659.659,0,0,0,.7-.7V69.508H40.334a1.4,1.4,0,0,1-1.4-1.4h0a1.4,1.4,0,0,1,1.4-1.4h4.883V63.231A.659.659,0,0,0,44.519,62.533Z" transform="translate(-31.267 -62.533)" fill="#bcd2ed"/>
        <circle id="Ellipse_634" data-name="Ellipse 634" cx="0.698" cy="0.698" r="0.698" transform="translate(8.37 4.883)" fill="#bcd2ed"/>
      </g>
    </g>
  </g>
</svg>
