<svg xmlns="http://www.w3.org/2000/svg" xmlns:xlink="http://www.w3.org/1999/xlink" width="26" height="26" viewBox="0 0 26 26"><defs><clipPath id="a"><rect width="26" height="26" transform="translate(290 103)" fill="#bdc0c9" opacity="0.367"/></clipPath></defs><g transform="translate(-290 -103)" clip-path="url(#a)"><g transform="translate(290.661 105.25)" style="isolation:isolate"><g transform="translate(0 -2.25)" fill="none"><path d="M24.59,7.629V21.461a2.306,2.306,0,0,1-2.305,2.305H2.305A2.306,2.306,0,0,1,0,21.461V7.629A2.306,2.306,0,0,1,2.305,5.324H6.532l.591-1.58A2.3,2.3,0,0,1,9.279,2.25h6.028a2.3,2.3,0,0,1,2.156,1.494l.6,1.58h4.226A2.306,2.306,0,0,1,24.59,7.629Z" stroke="none"/><path d="M 9.278989791870117 4.249998092651367 C 9.153110504150391 4.249998092651367 9.039230346679688 4.328287124633789 8.99590015411377 4.444047927856445 L 8.405149459838867 6.024168014526367 L 7.919269561767578 7.323787689208984 L 6.531789779663086 7.323787689208984 L 2.305339813232422 7.323787689208984 C 2.136970520019531 7.323787689208984 2 7.460758209228516 2 7.629127502441406 L 2 21.46115684509277 C 2 21.6295280456543 2.136970520019531 21.76649856567383 2.305339813232422 21.76649856567383 L 22.28494071960449 21.76649856567383 C 22.45331001281738 21.76649856567383 22.59028053283691 21.6295280456543 22.59028053283691 21.46115684509277 L 22.59028053283691 7.629127502441406 C 22.59028053283691 7.460758209228516 22.45331001281738 7.323787689208984 22.28494071960449 7.323787689208984 L 18.05849075317383 7.323787689208984 L 16.67494964599609 7.323787689208984 L 16.1870002746582 6.029157638549805 L 15.58987045288086 4.444828033447266 C 15.54625034332275 4.328296661376953 15.43237018585205 4.249998092651367 15.30648994445801 4.249998092651367 L 9.278989791870117 4.249998092651367 M 9.278989791870117 2.249998092651367 L 15.30648994445801 2.249998092651367 C 16.26705169677734 2.249998092651367 17.12673950195312 2.845546722412109 17.46294021606445 3.743667602539062 L 18.05849075317383 5.323787689208984 L 22.28494071960449 5.323787689208984 C 23.55768013000488 5.323787689208984 24.59028053283691 6.356388092041016 24.59028053283691 7.629127502441406 L 24.59028053283691 21.46115684509277 C 24.59028053283691 22.7338981628418 23.55768013000488 23.7664966583252 22.28494071960449 23.7664966583252 L 2.305339813232422 23.7664966583252 C 1.032600402832031 23.7664966583252 0 22.7338981628418 0 21.46115684509277 L 0 7.629127502441406 C 0 6.356388092041016 1.032600402832031 5.323787689208984 2.305339813232422 5.323787689208984 L 6.531789779663086 5.323787689208984 L 7.122539520263672 3.743667602539062 C 7.458730697631836 2.845546722412109 8.318429946899414 2.249998092651367 9.278989791870117 2.249998092651367 Z" stroke="none" fill="#bdc0c9"/></g><circle cx="1" cy="1" r="1" transform="translate(17.339 6.75)" fill="#bdc0c9"/><g transform="translate(6.339 6.75)" fill="none" stroke="#bdc0c9" stroke-width="2"><circle cx="5.5" cy="5.5" r="5.5" stroke="none"/><circle cx="5.5" cy="5.5" r="4.5" fill="none"/></g></g></g></svg>