<svg xmlns="http://www.w3.org/2000/svg" xmlns:xlink="http://www.w3.org/1999/xlink" width="26" height="26" viewBox="0 0 26 26"><defs><clipPath id="a"><rect width="26" height="26" transform="translate(257 103)" fill="#fff" opacity="0.367"/></clipPath></defs><g transform="translate(-257 -103)" clip-path="url(#a)"><path d="M22.285,21.516H2.3A2.307,2.307,0,0,1,0,19.211V5.379A2.307,2.307,0,0,1,2.3,3.074H6.531l.591-1.58A2.313,2.313,0,0,1,9.277,0h6.028a2.311,2.311,0,0,1,2.156,1.494l.6,1.58h4.228A2.308,2.308,0,0,1,24.59,5.379V19.211A2.308,2.308,0,0,1,22.285,21.516ZM12.294,6.531a5.764,5.764,0,1,0,5.763,5.763A5.77,5.77,0,0,0,12.294,6.531Zm7.1.129a.683.683,0,1,0,.685.683A.683.683,0,0,0,19.4,6.66Zm-7.1,9.861a4.227,4.227,0,1,1,4.226-4.227A4.231,4.231,0,0,1,12.294,16.522Z" transform="translate(257.601 105.25)" fill="#fff"/></g></svg>