<svg xmlns="http://www.w3.org/2000/svg" width="47" height="47" viewBox="0 0 47 47">
  <g id="user-avatar" transform="translate(-265 12233)">
    <circle id="Ellipse_905" data-name="Ellipse 905" cx="23.5" cy="23.5" r="23.5" transform="translate(265 -12233)" fill="#e5ecf5"/>
    <g id="Group_9852" data-name="Group 9852" transform="translate(271.623 -12228.042)">
      <path id="Path_4550" data-name="Path 4550" d="M43.856,41.535c5.938,0,9.975-4.814,9.975-10.752s-4.037-10.751-9.975-10.751-9.979,4.812-9.979,10.751S37.914,41.535,43.856,41.535Z" transform="translate(-26.984 -20.032)" fill="#8292a7"/>
      <path id="Path_4551" data-name="Path 4551" d="M47.63,53.654a12.173,12.173,0,0,1-16.1,0,16.945,16.945,0,0,0-8.82,14.14,23.472,23.472,0,0,0,33.741,0A16.947,16.947,0,0,0,47.63,53.654Z" transform="translate(-22.71 -32.905)" fill="#8292a7"/>
    </g>
  </g>
</svg>
