<?xml version="1.0" encoding="UTF-8"?>
<svg width="100pt" height="100pt" version="1.1" viewBox="0 0 100 100" xmlns="http://www.w3.org/2000/svg">
 <path d="m87.5 50.719v33.656c0 0.82812-0.32812 1.625-0.91406 2.2109-0.58594 0.58594-1.3828 0.91406-2.2109 0.91406h-68.75c-1.7266 0-3.125-1.3984-3.125-3.125v-68.75c0-1.7266 1.3984-3.125 3.125-3.125h33.688c1.7266 0 3.125 1.3984 3.125 3.125s-1.3984 3.125-3.125 3.125h-30.562v62.5h62.5v-30.531c0-1.7266 1.3984-3.125 3.125-3.125s3.125 1.3984 3.125 3.125zm0-35.094v22.594c0 1.2656-0.76172 2.4062-1.9297 2.8906-1.168 0.48438-2.5156 0.21484-3.4062-0.67969l-22.559-22.594h-0.003907c-0.89062-0.89453-1.1602-2.2383-0.67578-3.4062 0.48438-1.168 1.6211-1.9297 2.8867-1.9297h22.562c0.82812 0 1.625 0.32812 2.2109 0.91406 0.58594 0.58594 0.91406 1.3828 0.91406 2.2109zm-6.25 3.125h-11.898l11.898 11.914z" fill="#bbd1ec"/>
</svg>
