<svg xmlns="http://www.w3.org/2000/svg" width="22.661" height="23.044" viewBox="0 0 22.661 23.044"><g transform="translate(0.75 0.75)"><path d="M4.5,9H25.661" transform="translate(-4.5 -4.297)" fill="none" stroke="#fff" stroke-linecap="round" stroke-linejoin="round" stroke-width="1.5"/><path d="M23.959,7.7l-1.568,14.49a2.351,2.351,0,0,1-2.351,2.351H11.419a2.351,2.351,0,0,1-2.351-2.351L7.5,7.7m3.527,0V5.351A2.351,2.351,0,0,1,13.378,3h4.7a2.351,2.351,0,0,1,2.351,2.351V7.7" transform="translate(-5.149 -3)" fill="none" stroke="#fff" stroke-linecap="round" stroke-linejoin="round" stroke-width="1.5"/><path d="M15,16.5v7.054" transform="translate(-6.771 -7.105)" fill="none" stroke="#fff" stroke-linecap="round" stroke-linejoin="round" stroke-width="1.5"/><path d="M21,16.5v7.054" transform="translate(-8.068 -7.105)" fill="none" stroke="#fff" stroke-linecap="round" stroke-linejoin="round" stroke-width="1.5"/></g></svg>