<svg xmlns="http://www.w3.org/2000/svg" xmlns:xlink="http://www.w3.org/1999/xlink" width="422" height="163" viewBox="0 0 422 163"><defs><clipPath id="a"><rect width="422" height="163" rx="8" transform="translate(-20203 9738)" fill="#414953"/></clipPath><clipPath id="b"><ellipse cx="93.582" cy="93.581" rx="93.582" ry="93.581" fill="none"/></clipPath><linearGradient id="c" x1="0.73" y1="0.42" x2="0.028" y2="0.636" gradientUnits="objectBoundingBox"><stop offset="0" stop-color="#2f9fff"/><stop offset="1" stop-color="#185080"/></linearGradient><linearGradient id="d" x1="0.955" y1="0.353" x2="-0.108" y2="0.627" gradientUnits="objectBoundingBox"><stop offset="0" stop-color="#e5ecf5"/><stop offset="0.515" stop-color="#adc1da"/><stop offset="1" stop-color="#5e6977"/></linearGradient><linearGradient id="e" x1="0.898" y1="0.356" x2="0.033" y2="0.78" gradientUnits="objectBoundingBox"><stop offset="0" stop-color="#fff"/><stop offset="1" stop-color="#bcd2ed"/></linearGradient><linearGradient id="f" x1="0.15" y1="0.827" x2="0.5" y2="0.388" xlink:href="#c"/></defs><g transform="translate(-832 -89)"><g transform="translate(832 89)"><rect width="422" height="163" rx="8" transform="translate(0)" fill="#414953"/></g><g transform="translate(21035 -9649)" opacity="0.477" clip-path="url(#a)"><g transform="translate(-20162.27 9763.631)"><g clip-path="url(#b)"><ellipse cx="93.582" cy="93.581" rx="93.582" ry="93.581" fill="url(#c)"/><ellipse cx="64.273" cy="64.304" rx="64.273" ry="64.304" transform="translate(16.147 49.571)" opacity="0.469" fill="url(#d)" style="isolation:isolate"/><path d="M-601.825-1254.607a102.6,102.6,0,0,1,102.6,102.6,102.6,102.6,0,0,1-102.6,102.6,102.6,102.6,0,0,1-102.6-102.6A102.6,102.6,0,0,1-601.825-1254.607Z" transform="translate(780.005 1330.189)" fill="#2b323b" opacity="0.232" style="isolation:isolate"/><ellipse cx="33.77" cy="33.833" rx="33.77" ry="33.833" transform="translate(115.023 41.78)" fill="url(#e)"/><path d="M-601.825-1254.607a102.6,102.6,0,0,1,102.6,102.6,102.6,102.6,0,0,1-102.6,102.6,102.6,102.6,0,0,1-102.6-102.6A102.6,102.6,0,0,1-601.825-1254.607Z" transform="translate(780.005 1330.189)" fill="#2b323b" opacity="0.027" style="isolation:isolate"/></g></g><rect width="140.613" height="187.158" transform="translate(-20130.789 9724.15)" fill="none"/><ellipse cx="46.782" cy="46.782" rx="46.782" ry="46.782" transform="translate(-19954.309 9685.573)" fill="url(#f)"/></g><text transform="translate(895.422 183.97)" fill="#f8f8f8" font-size="34" font-family="HelveticaNeue-Bold, Helvetica Neue" font-weight="700"><tspan x="0" y="0">Welcome to OARII</tspan></text></g></svg>