<svg id="camera-light-blue" xmlns="http://www.w3.org/2000/svg" width="14.423" height="11.62" viewBox="0 0 14.423 11.62">
  <path id="Icon_awesome-camera" data-name="Icon awesome-camera" d="M14.423,5.405v7.113a1.353,1.353,0,0,1-1.352,1.352H1.352A1.353,1.353,0,0,1,0,12.518V5.405A1.353,1.353,0,0,1,1.352,4.053H3.831l.346-.927A1.35,1.35,0,0,1,5.443,2.25H8.978a1.35,1.35,0,0,1,1.265.876l.349.927h2.479A1.353,1.353,0,0,1,14.423,5.405ZM10.592,8.462a3.38,3.38,0,1,0-3.38,3.38A3.383,3.383,0,0,0,10.592,8.462Zm-.9,0A2.479,2.479,0,1,1,7.212,5.983,2.483,2.483,0,0,1,9.691,8.462Z" transform="translate(0 -2.25)" fill="#bcd2ed"/>
</svg>
