<svg xmlns="http://www.w3.org/2000/svg" width="25" height="21" viewBox="0 0 25 21">
  <g id="camera-outline-dark-gray" transform="translate(-1140 -58)">
    <g id="Rectangle_3225" data-name="Rectangle 3225" transform="translate(1140 58)" fill="#fff" stroke="#414953" stroke-width="2">
      <rect width="25" height="21" rx="5" stroke="none"/>
      <rect x="1" y="1" width="23" height="19" rx="4" fill="none"/>
    </g>
    <g id="Group_7528" data-name="Group 7528" transform="translate(1145.864 62.058)">
      <path id="Icon_awesome-camera" data-name="Icon awesome-camera" d="M13.2,5.137V12.56A1.237,1.237,0,0,1,11.959,13.8H1.237A1.237,1.237,0,0,1,0,12.56V5.137A1.237,1.237,0,0,1,1.237,3.9H3.505l.317-.848a1.235,1.235,0,0,1,1.157-.8H8.214a1.235,1.235,0,0,1,1.157.8l.32.848h2.268A1.237,1.237,0,0,1,13.2,5.137ZM9.691,8.848A3.093,3.093,0,1,0,6.6,11.941,3.1,3.1,0,0,0,9.691,8.848Zm-.825,0A2.268,2.268,0,1,1,6.6,6.58,2.271,2.271,0,0,1,8.866,8.848Z" transform="translate(0 -2.25)" fill="#414953"/>
    </g>
  </g>
</svg>
