<svg xmlns="http://www.w3.org/2000/svg" width="20.078" height="17.568" viewBox="0 0 20.078 17.568">
  <path id="camera-dark-gray" d="M20.078,6.642V17.936A1.883,1.883,0,0,1,18.2,19.818H1.882A1.883,1.883,0,0,1,0,17.936V6.642A1.883,1.883,0,0,1,1.882,4.76H5.333l.482-1.29A1.88,1.88,0,0,1,7.576,2.25H12.5a1.88,1.88,0,0,1,1.761,1.22l.486,1.29H18.2A1.883,1.883,0,0,1,20.078,6.642Zm-5.333,5.647a4.706,4.706,0,1,0-4.706,4.706A4.71,4.71,0,0,0,14.745,12.289Zm-1.255,0a3.451,3.451,0,1,1-3.451-3.451A3.456,3.456,0,0,1,13.49,12.289Z" transform="translate(0 -2.25)" fill="#414953"/>
</svg>
