<svg xmlns="http://www.w3.org/2000/svg" width="25.79" height="25.79" viewBox="0 0 25.79 25.79">
  <path id="Exclusion_6" data-name="Exclusion 6" d="M3742.9,7332.79a12.9,12.9,0,1,1,9.117-3.777A12.812,12.812,0,0,1,3742.9,7332.79Zm2.749-19.789a1.375,1.375,0,0,0-1.375,1.373v11a1.375,1.375,0,1,0,2.75,0v-11A1.375,1.375,0,0,0,3745.645,7313Zm-6.02,0a1.376,1.376,0,0,0-1.376,1.373v11a1.376,1.376,0,0,0,2.751,0v-11A1.375,1.375,0,0,0,3739.625,7313Z" transform="translate(-3730.001 -7307)" fill="#945cff"/>
</svg>
