<svg xmlns="http://www.w3.org/2000/svg" width="25.187" height="25.59" viewBox="0 0 25.187 25.59">
  <path id="pending-green" d="M12.592,25.589a12.411,12.411,0,0,1-8.9-3.747,12.94,12.94,0,0,1,0-18.095,12.453,12.453,0,0,1,17.809,0,12.94,12.94,0,0,1,0,18.095A12.413,12.413,0,0,1,12.592,25.589ZM12.433,6a.207.207,0,0,0-.055.011.355.355,0,0,1-.046.011l-.276.033c-.191.022-.389.044-.582.08A7.436,7.436,0,0,0,8.141,7.677a7.31,7.31,0,0,0-2,2.533,6.873,6.873,0,0,0-.695,2.871,6.974,6.974,0,0,0,.308,2.267,7.3,7.3,0,0,0,3.417,4.219,7.525,7.525,0,0,0,9.88-2.219.366.366,0,0,0-.1-.512L17.144,15.6a.416.416,0,0,0-.62.1l-.062.088c-.035.05-.071.1-.11.149a4.284,4.284,0,0,1-2.948,1.6,4.335,4.335,0,0,1-.537.034,4.283,4.283,0,0,1-2.545-.831A4.224,4.224,0,0,1,8.55,13.936a4,4,0,0,1,.292-2.328,4.477,4.477,0,0,1,4.074-2.631,4.377,4.377,0,0,1,2.459.754c.048.033.1.069.145.107L15.6,9.9l-.156.113c-.1.07-.185.135-.281.2l-.25.174c-.251.175-.51.356-.769.53a.306.306,0,0,0,.086.546l.3.1c.687.234,1.36.462,2.037.688q.793.266,1.588.529l0,0,1.318.439a.626.626,0,0,0,.2.037c.2,0,.308-.136.308-.383q0-.424,0-.848c0-.627-.008-1.271-.008-1.905V7.549a.991.991,0,0,0,0-.146.31.31,0,0,0-.179-.247.309.309,0,0,0-.3.028c-.414.279-.835.571-1.289.892a.144.144,0,0,1-.078.038.1.1,0,0,1-.068-.038A7.718,7.718,0,0,0,16.288,6.82a7.084,7.084,0,0,0-2.4-.752L13.341,6Z" transform="translate(0.001 0.001)" fill="#22d213"/>
</svg>
