<svg xmlns="http://www.w3.org/2000/svg" width="17.9" height="16.706" viewBox="0 0 17.9 16.706">
  <g id="pending-green-2" transform="translate(0.3 0.3)">
    <g id="Group_7732" data-name="Group 7732">
      <path id="Path_2519" data-name="Path 2519" d="M14.052,961.362a8.053,8.053,0,1,0,7.851,9.907.59.59,0,0,0-1.148-.27,6.866,6.866,0,1,1-.35-4.254l-1.185-.607a.59.59,0,1,0-.54,1.05l2.394,1.222a.59.59,0,0,0,.78-.24l1.344-2.4a.589.589,0,1,0-1.031-.571l-.644,1.154a8.079,8.079,0,0,0-7.47-4.99Z" transform="translate(-5.987 -961.362)" fill="#22d114" stroke="#22d114" stroke-width="0.6"/>
    </g>
  </g>
</svg>
