<svg xmlns="http://www.w3.org/2000/svg" width="25.79" height="25.79" viewBox="0 0 25.79 25.79">
  <path id="unlisted-green" d="M12.9,25.79A12.9,12.9,0,0,1,3.777,3.777,12.9,12.9,0,1,1,22.013,22.013,12.811,12.811,0,0,1,12.9,25.79Zm.04-18.5C9.89,7.294,7,8.867,4.356,11.97a1.476,1.476,0,0,0,0,1.923A15.911,15.911,0,0,0,7.689,16.9L5.708,18.777a.678.678,0,0,0,0,1,.773.773,0,0,0,1.053,0l2.593-2.454a.717.717,0,0,0,.09-.085L11.3,15.477c.021-.016.041-.033.059-.051s.035-.034.053-.055l8.751-8.284a.677.677,0,0,0,0-1,.772.772,0,0,0-1.053,0L16.864,8.216A9.064,9.064,0,0,0,12.936,7.294ZM11.2,16.967a.735.735,0,0,0-.725.541.668.668,0,0,0,.08.517.737.737,0,0,0,.472.332,8.723,8.723,0,0,0,1.908.214c3.045,0,5.932-1.574,8.579-4.678a1.475,1.475,0,0,0,0-1.922,17.09,17.09,0,0,0-2.394-2.332.773.773,0,0,0-1.049.09.677.677,0,0,0-.169.513.689.689,0,0,0,.266.48,15.656,15.656,0,0,1,2.188,2.134.125.125,0,0,1,0,.152c-2.351,2.756-4.847,4.154-7.419,4.154a7.141,7.141,0,0,1-1.564-.176A.786.786,0,0,0,11.2,16.967Zm4.713-4.739a.726.726,0,0,0-.744.7,2.179,2.179,0,0,1-2.234,2.114.706.706,0,1,0,0,1.409,3.631,3.631,0,0,0,3.722-3.524A.726.726,0,0,0,15.914,12.227ZM8.762,15.886h0a14.186,14.186,0,0,1-3.246-2.877.128.128,0,0,1,0-.152C7.866,10.1,10.362,8.7,12.936,8.7a7.4,7.4,0,0,1,2.81.572l-.756.716a3.848,3.848,0,0,0-2.054-.583,3.632,3.632,0,0,0-3.723,3.523,3.377,3.377,0,0,0,.616,1.944L8.762,15.885Zm2.158-2.042h0a2,2,0,0,1-.217-.911,2.179,2.179,0,0,1,2.234-2.114,2.326,2.326,0,0,1,.964.205l-2.979,2.82Z" fill="#22d213"/>
</svg>
