<svg xmlns="http://www.w3.org/2000/svg" width="25.522" height="25.79" viewBox="0 0 25.522 25.79">
  <path id="x-red" d="M12.9,0A12.827,12.827,0,0,0,0,12.761,12.827,12.827,0,0,0,12.9,25.522a12.827,12.827,0,0,0,12.9-12.761A12.827,12.827,0,0,0,12.9,0Zm3.052,17.562L12.835,14.5,9.784,17.551a1.222,1.222,0,0,1-1.557-.17,1.277,1.277,0,0,1-.2-1.55L11.1,12.762l-3.07-3.07a1.291,1.291,0,0,1,.2-1.551c.384-.38,1.217-.629,1.6-.249l3.087,3,3.067-2.984a1.214,1.214,0,0,1,1.552.161,1.253,1.253,0,0,1,.192,1.583L14.635,12.7l3.1,3.1a1.241,1.241,0,0,1-.176,1.577A1.291,1.291,0,0,1,15.947,17.562Z" transform="translate(0 25.79) rotate(-90)" fill="#fd2c20"/>
</svg>
