<svg id="billing-light-blue" xmlns="http://www.w3.org/2000/svg" width="13.884" height="11.564" viewBox="0 0 13.884 11.564">
  <g id="Calque_2" data-name="Calque 2" transform="translate(0 0)">
    <g id="Calque_2-2" data-name="Calque 2">
      <path id="Path_2480" data-name="Path 2480" d="M0,.719V2.266H13.884V.719A.71.71,0,0,0,13.671.21.734.734,0,0,0,13.154,0H.73A.734.734,0,0,0,.213.21.71.71,0,0,0,0,.719Z" transform="translate(0 0)" fill="#bcd2ed"/>
      <path id="Path_2481" data-name="Path 2481" d="M0,11.82V18.5a1.015,1.015,0,0,0,.213.638A.665.665,0,0,0,.73,19.4H13.154a.665.665,0,0,0,.517-.263,1.015,1.015,0,0,0,.213-.638V11.82Zm12.7,5.792a.163.163,0,0,1-.035.1.106.106,0,0,1-.085.041H9.452a.133.133,0,0,1-.117-.145V16.526a.165.165,0,0,1,.033-.1.108.108,0,0,1,.084-.044h3.124a.137.137,0,0,1,.12.148Z" transform="translate(0 -7.839)" fill="#bcd2ed"/>
    </g>
  </g>
</svg>
