<svg xmlns="http://www.w3.org/2000/svg" width="25.79" height="25.791" viewBox="0 0 25.79 25.791">
  <path id="exclamation-red" d="M12.9,25.79A12.895,12.895,0,0,1,3.777,3.777,12.895,12.895,0,1,1,22.013,22.014,12.81,12.81,0,0,1,12.9,25.79Zm-.03-7.218h-.056a2.118,2.118,0,0,0-.877.216,1.849,1.849,0,0,0-.712.623,2.267,2.267,0,0,0-.368,1.029,1.948,1.948,0,0,0,.724,1.449,2.07,2.07,0,0,0,1.237.433h.073A1.955,1.955,0,0,0,14.13,21.8a1.658,1.658,0,0,0,.509-1.41,1.983,1.983,0,0,0-.293-1.017,1.716,1.716,0,0,0-.673-.609A1.786,1.786,0,0,0,12.865,18.572Zm-.2-13.484-.069,0a1.446,1.446,0,0,0-.851.369,2.252,2.252,0,0,0-.635.953l-.025.152v8.768a1.468,1.468,0,0,0,.47,1.169,1.673,1.673,0,0,0,1.042.432l.07,0a1.58,1.58,0,0,0,1-.37,1.491,1.491,0,0,0,.521-1.182c.033-.728.059-1.463.076-2.186s.021-1.443.013-2.16-.026-1.486-.051-2.262-.055-1.613-.089-2.49a1.992,1.992,0,0,0-.673-.928A1.379,1.379,0,0,0,12.662,5.089Z" fill="#fd2c20"/>
</svg>
