<svg xmlns="http://www.w3.org/2000/svg" width="57.004" height="57.001" viewBox="0 0 57.004 57.001">
  <path id="image-default-blue" d="M-11212.5,12287a28.334,28.334,0,0,1-11.095-2.239,28.4,28.4,0,0,1-9.06-6.108,28.409,28.409,0,0,1-6.108-9.06,28.337,28.337,0,0,1-2.239-11.095,28.324,28.324,0,0,1,2.239-11.093,28.409,28.409,0,0,1,6.108-9.06,28.416,28.416,0,0,1,9.06-6.107,28.334,28.334,0,0,1,11.095-2.239,28.326,28.326,0,0,1,11.094,2.239,28.426,28.426,0,0,1,9.061,6.107,28.412,28.412,0,0,1,6.107,9.06,28.318,28.318,0,0,1,2.24,11.093,28.331,28.331,0,0,1-2.24,11.095,28.412,28.412,0,0,1-6.107,9.06,28.418,28.418,0,0,1-9.061,6.108A28.326,28.326,0,0,1-11212.5,12287Zm-9.938-27.948h0l-10.068,12.948h40.275l-12.945-17.262-10.068,12.944-7.193-8.631Zm15.938-16.552a4,4,0,0,0-4,4,4,4,0,0,0,4,4,4,4,0,0,0,4-4A4,4,0,0,0-11206.5,12242.5Z" transform="translate(11241.002 -12230)" fill="#2f9fff"/>
</svg>
