<svg id="notifications-light-blue" xmlns="http://www.w3.org/2000/svg" width="13.164" height="13.178" viewBox="0 0 13.164 13.178">
  <g id="Group_7535" data-name="Group 7535" transform="translate(0 0)">
    <path id="Path_2487" data-name="Path 2487" d="M12.89,18.041a.661.661,0,0,1-.734.749H5.585a.659.659,0,0,1-.749-.749V11.47a.716.716,0,0,1,.749-.734H9.639A12.452,12.452,0,0,1,9.9,8.4H5.585A3.069,3.069,0,0,0,2.5,11.47v6.585A3.091,3.091,0,0,0,5.585,21.14H12.17a3.078,3.078,0,0,0,3.071-3.085V13.744a11.371,11.371,0,0,1-2.337.243v4.053Z" transform="translate(-2.5 -7.962)" fill="#bcd2ed"/>
    <circle id="Ellipse_635" data-name="Ellipse 635" cx="2.501" cy="2.501" r="2.501" transform="translate(8.162)" fill="#bcd2ed"/>
  </g>
</svg>
