<svg id="privacy-light-blue" xmlns="http://www.w3.org/2000/svg" width="12.706" height="15.248" viewBox="0 0 12.706 15.248">
  <path id="Path_2482" data-name="Path 2482" d="M27.082,15.361V9.743a.686.686,0,0,0-.25-.517.7.7,0,0,0-.482-.178H26.28a6.613,6.613,0,0,1-.838.054A6.531,6.531,0,0,1,21.215,7.5a.689.689,0,0,0-.963,0A6.363,6.363,0,0,1,16.025,9.1a6.613,6.613,0,0,1-.838-.054h-.071a.7.7,0,0,0-.482.178.659.659,0,0,0-.25.517v5.618a6.264,6.264,0,0,0,1.89,4.405,11.829,11.829,0,0,0,4.209,2.729.7.7,0,0,0,.535,0,11.041,11.041,0,0,0,4.637-3.246A5.982,5.982,0,0,0,27.082,15.361Zm-4.922-.767v3.5a1.427,1.427,0,0,1-2.853,0v-3.5a2.3,2.3,0,1,1,3.727-1.8A2.435,2.435,0,0,1,22.16,14.594Z" transform="translate(-14.381 -7.3)" fill="#bcd2ed"/>
</svg>
