<svg xmlns="http://www.w3.org/2000/svg" width="25.79" height="25.79" viewBox="0 0 25.79 25.79">
  <path id="smiley-blue" d="M12.895.563A12.895,12.895,0,1,0,25.79,13.457,12.893,12.893,0,0,0,12.895.563ZM17.055,9.3a1.664,1.664,0,1,1-1.664,1.664A1.662,1.662,0,0,1,17.055,9.3Zm-8.319,0a1.664,1.664,0,1,1-1.664,1.664A1.662,1.662,0,0,1,8.735,9.3Zm10.129,8.85a7.767,7.767,0,0,1-11.938,0A.833.833,0,0,1,8.2,17.082a6.109,6.109,0,0,0,9.38,0A.833.833,0,0,1,18.864,18.148Z" transform="translate(0 -0.563)" fill="#2f9fff"/>
</svg>
