<svg xmlns="http://www.w3.org/2000/svg" width="19.112" height="13.378" viewBox="0 0 19.112 13.378">
  <path id="upload-dark-gray" d="M16.054,8.061a2.87,2.87,0,0,0-2.676-3.9,2.852,2.852,0,0,0-1.592.484,4.778,4.778,0,0,0-8.92,2.383c0,.081,0,.161.006.242A4.3,4.3,0,0,0,4.3,15.628H15.289a3.822,3.822,0,0,0,.764-7.567ZM11.748,9.895H9.795v3.345a.479.479,0,0,1-.478.478H7.884a.479.479,0,0,1-.478-.478V9.895H5.453a.477.477,0,0,1-.337-.815L8.263,5.932a.479.479,0,0,1,.675,0l3.147,3.147a.478.478,0,0,1-.337.815Z" transform="translate(0 -2.25)" fill="#2b323b"/>
</svg>
